<svg xmlns="http://www.w3.org/2000/svg" width="910" height="630"><defs><linearGradient id="a" x2="1" y1=".5" y2=".5" gradientUnits="objectBoundingBox"><stop offset="0" stop-color="gray" stop-opacity=".25"/><stop offset=".54" stop-color="gray" stop-opacity=".12"/><stop offset="1" stop-color="gray" stop-opacity=".1"/></linearGradient></defs><g><path fill="#007eb3" d="M514.72 85.8c-58.32.08-114.47-16.51-168.18-34.93S239.56 11.8 182.3 3.07c-36.81-5.62-78.68-5.11-107.45 15.3-27.71 19.62-35.73 52.11-39.6 82.12-2.9 22.6-4.24 46.3 6.65 66.95 7.57 14.34 20.53 26.16 29.66 39.82 31.87 47.54 12.7 108.28-18.27 156.92-14.52 22.83-31.53 44.7-42.52 68.84s-15.46 51.5-4.28 75.3c11.1 23.61 36.17 40.74 63.06 52.46 54.62 23.8 118.23 28.9 180.1 30.87 137 4.35 274.27-4.54 411.16-13.43 50.66-3.28 101.54-6.6 151.16-16.12 27.55-5.28 55.9-13.13 75.44-30.32 24.78-21.82 29.86-57.44 11.82-83.06-30.25-42.95-110.02-51.06-131.72-97.53-11.96-25.59-1.64-54.92 13.55-79.6 32.58-52.91 88.67-100.31 89.63-159.51.63-40.64-28.53-80.3-72.1-97.96C752.92-4.38 690.66.37 658.66 34.86 625.78 70.4 566.23 85.74 514.72 85.8z" data-name="Path 309" opacity=".1"/><path fill="#007eb3" d="M774.51 505.05s-9.59-6.33-19.1-1.83c0 0 2.93 5.64 14.96 5.1z" data-name="Path 310"/><path fill="#007eb3" d="M775.73 505.74s2.92 11.12-4.4 18.67c0 0-4.41-4.57 0-15.8z" data-name="Path 311"/><path fill="#007eb3" d="M787.65 494.7s-.71-9.46-22.06-6.33c0 0-.1 6.1 7.4 8.98s10.91.45 14.66-2.67z" data-name="Path 312"/><path fill="#007eb3" d="M789 494.67s9.01 2.9.96 22.9c0 0-5.95-1.32-7.02-9.29s2.1-10.71 6.05-13.61z" data-name="Path 313"/><path fill="#007eb3" d="M801.03 481.18s1.24-15.56-20.58-13.96c0 0-1.56 14.04 16.74 17.7z" data-name="Path 314"/><path fill="#007eb3" d="M815.44 463.56s-2.98-17.62-24.78-12.37c0 0-.08 15.23 21.22 16.56z" data-name="Path 315"/><path fill="#007eb3" d="M825.98 445.35s-5-17.16-26.6-12.03c0 0 5.14 15.43 25.18 15.19z" data-name="Path 316"/><path fill="#007eb3" d="M835.98 427.58s-4.88-17.81-25.74-12.5c0 0 6.96 16.94 24.36 15.5z" data-name="Path 317"/><path fill="#007eb3" d="M842.43 410.68s-3.75-21.78-23.2-16.97c0 0 5.64 19.82 21.78 20.15z" data-name="Path 318"/><path fill="#007eb3" d="M848.48 390.27s-4.52-21.95-24.2-15.6c0 0 7.72 20.76 22.8 18.61z" data-name="Path 319"/><path fill="#007eb3" d="M852.2 371.29s-7.17-21.96-22.39-21.38c0 0 7.34 23.2 21.12 25.76z" data-name="Path 320"/><path fill="#007eb3" d="M854.6 352.76s-7.8-26.44-20.18-24.4c0 0 5.4 20.2 19.74 28.51z" data-name="Path 321"/><path fill="#007eb3" d="M855.95 330.64s-7.3-22.03-19.5-22.9c0 0 4.98 21.67 19.27 28.63z" data-name="Path 322"/><path fill="#007eb3" d="M857.43 310.01s-9.12-22.06-17.16-22.55c0 0 3.97 21.72 16.38 26.18z" data-name="Path 323"/><path fill="#007eb3" d="M858.43 290.8s-5.6-23.94-13.68-25.92c0 0 1.1 19.6 12.86 27.72z" data-name="Path 324"/><path fill="#007eb3" d="M861.48 265.69s-5.9-19.1-12.43-22.02c0 0 1.29 22.51 10.92 26.69z" data-name="Path 325"/><path fill="#007eb3" d="M864 249.22l1.19-33.66s-12.21 25.38-2.07 39.57z" data-name="Path 326"/><path fill="#007eb3" d="M873.42 215.67s8.8-24.6 10.92-25.96c0 0-17.24 15.96-15.56 36.47z" data-name="Path 327"/><path fill="#007eb3" d="M801.62 481.1s15.47-2.02 15.01 19.85c0 0-13.97 2.27-18.54-15.82z" data-name="Path 328"/><path fill="#007eb3" d="M816.18 463.02s17.88-.06 16.38 22.32c0 0-15 2.68-19.93-18.1z" data-name="Path 329"/><path fill="#007eb3" d="M826.16 446.84s16.21-7.61 26.6 12.04c0 0-14.99 6.32-28.06-8.87z" data-name="Path 330"/><path fill="#007eb3" d="M836.34 427.77s16.61-8.09 26.37 11.08c0 0-17.31 5.97-27.74-8.04z" data-name="Path 331"/><path fill="#007eb3" d="M842.22 411.18s15.99-15.27 28.74.16c0 0-16.33 12.6-29.48 3.25z" data-name="Path 332"/><path fill="#007eb3" d="M847.57 389.79s16.08-15.6 28.74.7c0 0-18.05 12.82-29.31 2.57z" data-name="Path 333"/><path fill="#007eb3" d="M850.58 370.66s12.39-19.5 26.98-15.15c0 0-12.87 20.67-26.84 19.74z" data-name="Path 334"/><path fill="#007eb3" d="M854.23 352.63s12.49-24.56 24.3-20.29c0 0-9 18.89-24.62 24.43z" data-name="Path 335"/><path fill="#007eb3" d="M855.1 329.37s12.84-19.34 24.85-16.97c0 0-10.48 19.61-26.1 22.57z" data-name="Path 336"/><path fill="#007eb3" d="M856.09 309.57s9.96-21.69 18.03-21.84c0 0-4.77 21.54-17.35 25.54z" data-name="Path 337"/><path fill="#007eb3" d="M858.04 290.34s11.06-21.96 19.38-22.01c0 0-5.67 18.78-19 23.94z" data-name="Path 338"/><path fill="#007eb3" d="M859.71 267.06s8.27-18.18 15.12-20.25c0 0-4.13 22.17-14.2 25.07z" data-name="Path 339"/><path fill="#007eb3" d="M864.98 248.57l18.47-28.17s-4.72 27.78-21.17 33.56z" data-name="Path 340"/><path fill="#007eb3" d="M877.67 217.95s21.48-14.82 22.26-17.22c0 0-10.92 20.76-31.2 24.43z" data-name="Path 341"/><path fill="#007eb3" d="M878.95 211.23s24.67-23.7 30.97-23.67c0 0-20.34.91-31.56 22.41z" data-name="Path 342"/><path fill="#444053" d="M859.94 270.5l.9.12c4.64-36.26 11.39-57.74 19.02-60.37l-.3-.85c-8.07 2.8-14.88 23.95-19.62 61.1z" data-name="Path 343"/><path fill="#444053" d="M853.13 357.5l1.37.1c.27-3.38.5-6.84.64-10.3 1.3-30.02 3.3-57.61 5.94-78.27l-.78-.98q-4.85 39.45-6.51 79.2c-.14 3.42-.37 6.88-.66 10.26z" data-name="Path 344"/><path fill="#444053" d="M749.2 522.29c.23-.1 24.13-10.79 48.94-36.24a196.8 196.8 0 0 0 35.78-50.71c11.46-23.36 18.47-52.06 20.8-79.93l-1.42.65c-5.26 62.6-33.75 105.35-56.4 128.64-24.56 25.23-48.21 35.8-48.44 35.89z" data-name="Path 345"/><path fill="#3f3d56" d="M811.08 66.5H61.26a6.68 6.68 0 0 0-6.67 6.68v19.46h763.17V73.18a6.68 6.68 0 0 0-6.68-6.68z" data-name="Path 346"/><path fill="#fff" d="M54.6 92.64v439.72a13.5 13.5 0 0 0 13.45 13.52H804.3a13.5 13.5 0 0 0 13.47-13.52V92.64z" data-name="Path 347"/><ellipse cx="3.12" cy="3.12" fill="#fa5959" data-name="Ellipse 69" opacity=".8" rx="3.12" ry="3.12" transform="translate(63.55 76.25)"/><ellipse cx="3.12" cy="3.12" fill="#fed253" data-name="Ellipse 70" opacity=".8" rx="3.12" ry="3.12" transform="translate(72.14 76.25)"/><ellipse cx="3.12" cy="3.12" fill="#8ccf4d" data-name="Ellipse 71" opacity=".8" rx="3.12" ry="3.12" transform="translate(80.72 76.25)"/><path d="M125.53 166.51h613.3V436.2h-613.3z" data-name="Rectangle 26" opacity=".05"/><path fill="#3f3d56" d="M130.2 168.56h603.96V432.3H130.2z" data-name="Rectangle 27"/><path fill="#007eb3" d="M294.87 236.44a60.07 60.07 0 1 0 60.07 60.07 60.07 60.07 0 0 0-60.07-60.07zm10.77 61.52v28.45H284.4v-28.45a17.6 17.6 0 1 1 21.24 0z" data-name="Path 348"/><path d="M294.87 236.44a60.07 60.07 0 1 0 60.07 60.07 60.07 60.07 0 0 0-60.07-60.07zm10.77 61.52v28.45H284.4v-28.45a17.6 17.6 0 1 1 21.24 0z" data-name="Path 349" opacity=".05"/><path fill="#007eb3" d="M294.87 219.26a77.25 77.25 0 1 0 77.25 77.25 77.25 77.25 0 0 0-77.25-77.24zm13.85 79.11v36.58H281.4v-36.58a22.63 22.63 0 1 1 27.32 0z" data-name="Path 350"/><path fill="#fff" d="M404.12 286.4h249.7v26.54h-249.7z" data-name="Rectangle 28"/><path fill="#007eb3" d="M599.97 334.93h53.83v26.53h-53.83z" data-name="Rectangle 29"/><path fill="#007eb3" d="M428.69 299.27h-4.52l4.03-4.01a.41.41 0 0 0 0-.55.38.38 0 0 0-.55 0l-4.02 4.02v-4.53a.38.38 0 0 0-.39-.4.41.41 0 0 0-.4.4v4.52l-4-4.04a.38.38 0 0 0-.55 0 .41.41 0 0 0 0 .55l4.02 4.01h-4.52a.41.41 0 0 0-.4.4.38.38 0 0 0 .4.38h4.52l-4.02 4.03a.39.39 0 0 0 .54.54l4.01-4.02v4.52a.39.39 0 1 0 .78 0v-4.52l4.03 4.02a.39.39 0 1 0 .54-.55l-4.02-4.02h4.52a.38.38 0 1 0 0-.75z" data-name="Path 351"/><path fill="#007eb3" d="M445.08 299.27h-4.52l4.01-4.01a.41.41 0 0 0 0-.55.38.38 0 0 0-.54 0l-4.01 4.02v-4.53a.38.38 0 0 0-.4-.4.41.41 0 0 0-.39.4v4.52l-4-4.04a.38.38 0 0 0-.55 0 .41.41 0 0 0 0 .55l4 4.01h-4.5a.41.41 0 0 0-.4.4.38.38 0 0 0 .4.38h4.5l-4 4.03a.39.39 0 0 0 .54.54l4.01-4.02v4.52a.39.39 0 1 0 .78 0v-4.52l4.01 4.02a.39.39 0 0 0 .55-.55l-4-4.02h4.5a.38.38 0 1 0 0-.75z" data-name="Path 352"/><path fill="#007eb3" d="M461.46 299.27h-4.52l4.03-4.01a.41.41 0 0 0 0-.55.38.38 0 0 0-.55 0l-4.02 4.02v-4.53a.38.38 0 0 0-.39-.4.41.41 0 0 0-.4.4v4.52l-4-4.04a.38.38 0 0 0-.55 0 .41.41 0 0 0 0 .55l4.02 4.01h-4.52a.41.41 0 0 0-.4.4.38.38 0 0 0 .4.38h4.52l-4.02 4.03a.39.39 0 0 0 .54.54l4.01-4.02v4.52a.39.39 0 1 0 .78 0v-4.52l4.03 4.02a.39.39 0 0 0 .54-.55l-4.02-4.02h4.52a.38.38 0 1 0 0-.75z" data-name="Path 353"/><path fill="#007eb3" d="M477.85 299.27h-4.51l4-4.01a.41.41 0 0 0 0-.55.38.38 0 0 0-.54 0l-4.01 4.02v-4.53a.38.38 0 0 0-.4-.4.41.41 0 0 0-.38.4v4.52l-4.01-4.04a.38.38 0 0 0-.55 0 .41.41 0 0 0 0 .55l4.01 4.01h-4.52a.41.41 0 0 0-.4.4.38.38 0 0 0 .4.38h4.52l-4.01 4.03a.39.39 0 0 0 .55.54l4-4.02v4.52a.39.39 0 0 0 .79 0v-4.52l4 4.02a.39.39 0 0 0 .55-.55l-4-4.02h4.5a.38.38 0 1 0 0-.75z" data-name="Path 354"/><path fill="#007eb3" d="M494.23 299.27h-4.51l4.02-4.01a.41.41 0 0 0 0-.55.38.38 0 0 0-.54 0l-4.03 4.02v-4.53a.38.38 0 0 0-.38-.4.41.41 0 0 0-.4.4v4.52l-4-4.04a.38.38 0 0 0-.56 0 .41.41 0 0 0 0 .55l4.03 4.01h-4.52a.41.41 0 0 0-.41.4.38.38 0 0 0 .41.38h4.52l-4.03 4.03a.39.39 0 1 0 .55.54l4.01-4.02v4.52a.39.39 0 0 0 .78 0v-4.52l4.02 4.02a.39.39 0 1 0 .55-.55l-4.02-4.02h4.51a.38.38 0 1 0 0-.75z" data-name="Path 355"/><path fill="#007eb3" d="M510.63 299.27h-4.52l4.01-4.01a.41.41 0 0 0 0-.55.38.38 0 0 0-.55 0l-4 4.02v-4.53a.38.38 0 0 0-.4-.4.41.41 0 0 0-.39.4v4.52l-4-4.04a.38.38 0 0 0-.56 0 .41.41 0 0 0 0 .55l4.01 4.01h-4.51a.41.41 0 0 0-.4.4.38.38 0 0 0 .4.38h4.51l-4 4.03a.39.39 0 0 0 .54.54l4.01-4.02v4.52a.39.39 0 0 0 .78 0v-4.52l4.01 4.02a.39.39 0 1 0 .55-.55l-4.01-4.02h4.51a.38.38 0 1 0 0-.75z" data-name="Path 356"/><path fill="#007eb3" d="M527 299.27h-4.5l4.01-4.01a.41.41 0 0 0 0-.55.38.38 0 0 0-.54 0l-4.03 4.02v-4.53a.38.38 0 0 0-.38-.4.41.41 0 0 0-.4.4v4.52l-4-4.04a.38.38 0 0 0-.55 0 .41.41 0 0 0 0 .55l4.02 4.01h-4.52a.41.41 0 0 0-.4.4.38.38 0 0 0 .4.38h4.52l-4.02 4.03a.39.39 0 0 0 .54.54l4.01-4.02v4.52a.39.39 0 1 0 .78 0v-4.52l4.02 4.02a.39.39 0 0 0 .55-.55l-4.02-4.02H527a.38.38 0 1 0 0-.75z" data-name="Path 357"/><path fill="#007eb3" d="M543.4 299.27h-4.52l4.01-4.01a.41.41 0 0 0 0-.55.38.38 0 0 0-.54 0l-4.01 4.02v-4.53a.38.38 0 0 0-.4-.4.41.41 0 0 0-.39.4v4.52l-4-4.04a.38.38 0 0 0-.55 0 .41.41 0 0 0 0 .55l4 4.01h-4.5a.41.41 0 0 0-.4.4.38.38 0 0 0 .4.38h4.5l-4 4.03a.39.39 0 0 0 .55.54l4-4.02v4.52a.39.39 0 1 0 .79 0v-4.52l4 4.02a.39.39 0 0 0 .55-.55l-4-4.02h4.5a.38.38 0 1 0 0-.75z" data-name="Path 358"/><path fill="#007eb3" d="M559.78 299.27h-4.51l4.02-4.01a.41.41 0 0 0 0-.55.38.38 0 0 0-.55 0l-4.02 4.02v-4.53a.38.38 0 0 0-.38-.4.41.41 0 0 0-.4.4v4.52l-4.01-4.03a.38.38 0 0 0-.55 0 .41.41 0 0 0 0 .54l4.02 4.01h-4.51a.41.41 0 0 0-.41.4.38.38 0 0 0 .4.39h4.52l-4.02 4.02a.39.39 0 0 0 .55.55l4-4.03v4.52a.39.39 0 0 0 .79 0v-4.52l4.02 4.02a.39.39 0 0 0 .55-.55l-4.03-4.02h4.52a.38.38 0 1 0 0-.75z" data-name="Path 359"/><path fill="#007eb3" d="M576.17 299.27h-4.51l4-4.01a.41.41 0 0 0 0-.55.38.38 0 0 0-.54 0l-4 4.02v-4.53a.38.38 0 0 0-.4-.4.41.41 0 0 0-.4.4v4.52l-4-4.04a.38.38 0 0 0-.55 0 .41.41 0 0 0 0 .55l4.01 4.01h-4.52a.41.41 0 0 0-.4.4.38.38 0 0 0 .4.38h4.52l-4 4.03a.39.39 0 0 0 .54.54l4-4.02v4.52a.39.39 0 0 0 .79 0v-4.52l4 4.02a.39.39 0 0 0 .55-.55l-4-4.02h4.51a.38.38 0 1 0 0-.75z" data-name="Path 360"/><path fill="#007eb3" d="M592.55 299.27h-4.51l4.02-4.01a.41.41 0 0 0 0-.55.38.38 0 0 0-.55 0l-4.02 4.02v-4.53a.38.38 0 0 0-.38-.4.41.41 0 0 0-.4.4v4.52l-4.01-4.04a.38.38 0 0 0-.55 0 .41.41 0 0 0 0 .55l4.02 4h-4.51a.41.41 0 0 0-.41.4.38.38 0 0 0 .4.4h4.53l-4.03 4.02a.39.39 0 0 0 .55.54l4-4.02v4.52a.39.39 0 1 0 .79 0v-4.52l4.02 4.02a.39.39 0 0 0 .55-.55l-4.02-4.02h4.51a.38.38 0 1 0 0-.75z" data-name="Path 361"/><path fill="url(#a)" d="M903.92 533.03a13.96 13.96 0 0 0-.36-2.8c-.7-2.63-2.28-5.82-4.88-6.63a41.06 41.06 0 0 1-7.76-3.28c-.47-8.35 1.45-16.91-.64-25.02-.78-2.96-2.07-5.81-2.41-8.83-.44-3.78.6-7.8-.9-11.3a11.14 11.14 0 0 0-6.6-5.69 35.14 35.14 0 0 0-8.8-1.56c-3.74-.3-15.88-1.74-20.1 1.6a4.42 4.42 0 0 0-.78.78 3.13 3.13 0 0 0-.25.41l-.04.07a3.16 3.16 0 0 0-.2.5 3.95 3.95 0 0 0-.14.6v1.4c.05.7.15 1.4.15 2.1a4.53 4.53 0 0 1-.08 1.03 7.21 7.21 0 0 1-1.3 2.53l-.14.2c-.08.13-.18.24-.25.36l-.2.33a2.28 2.28 0 0 0-.18.27 3.81 3.81 0 0 0-.2.41c0 .08-.09.14-.13.22a3.85 3.85 0 0 0-.23.66 4.35 4.35 0 0 0-.04 2.08 7.73 7.73 0 0 0 1.07 2.46l.61.96.55.72a16.83 16.83 0 0 0-.17 2.2 16.15 16.15 0 0 0 6.16 12.68 47.8 47.8 0 0 1-.1 9.9q-.2 1.9-.5 3.78a7.92 7.92 0 0 1-3.42-.26 16.09 16.09 0 0 0-1.55-.6c-2.27-.56-4.58 1.7-6.84 1.02a.91.91 0 0 1-.1.31 3.05 3.05 0 0 0-1.56-.46 5.7 5.7 0 0 1-3.4-1.95l-2.96-2.8a3.3 3.3 0 0 1-.5-.58 4.05 4.05 0 0 1-.38-.95 11.06 11.06 0 0 0-2.87-4.12 1.96 1.96 0 0 0-.85-.62 1.3 1.3 0 0 0-.38 0 3.43 3.43 0 0 0-.28-.31 7.34 7.34 0 0 0-.63-.66c-1.42-1.31-1.56-2.44-2.8-3.9a37.48 37.48 0 0 1-2.92-4.4c-.1-.83-.24-1.68-.4-2.52a32.32 32.32 0 0 0-1.72-5.7l-1.56-3.46-.18.18c-1.13-1.68-2.34-2.6-3.42-2.38-1.82.37-2.7 3.9-2.42 8.5l.62 4.69a1.45 1.45 0 0 0 .1.36 8.65 8.65 0 0 0-.18 1.68c0 .66.61 1.13.93 1.72a4.87 4.87 0 0 1 .78 2.66c-.04.34-.14.65-.15.98a3.79 3.79 0 0 0 .72 2.03l3.9 6.57.78 1.36.06.06a3.33 3.33 0 0 0 1.04 1.2 14.29 14.29 0 0 0 1.28 4.73c.14.29.28.58.44.85a27.59 27.59 0 0 0 3.7 4.79l1.84 2.1c1.84 2.05 3.67 4.1 5.66 5.97a7.58 7.58 0 0 0 2.53 1.78 2.87 2.87 0 0 0 2.84-.4v2.9a1.64 1.64 0 0 1 1.23 2.55 64.36 64.36 0 0 1-5.77 12.22 26 26 0 0 1 4.83 3.7 21.76 21.76 0 0 1 2.52 3.42c.08.56.13 1.13.16 1.7.58 9.31-3 18.54-6.24 27.4a21.34 21.34 0 0 0-1.87 7.75 15.24 15.24 0 0 0-1.74 1.26 11.57 11.57 0 0 1 .31 4.96 8.76 8.76 0 0 1-.64 3.12 21.99 21.99 0 0 1-1.12 2c-2.03 3.57-2.46 7.8-2.88 11.87-.24 2.47.72 5.48-.4 7.67a31.35 31.35 0 0 0-3.9 12 12.02 12.02 0 0 1-.37 2.8c-.24.78-.68 1.44-.9 2.2a9.44 9.44 0 0 0-.15 3.12 29.87 29.87 0 0 1-1.64 11.02c-.97 2.79-2.05 5.76-1.28 8.62a12.17 12.17 0 0 0-3.3 7.25 11.43 11.43 0 0 1-.26 2.08 10.07 10.07 0 0 1-.93 1.99 17.42 17.42 0 0 0-2.12 9.37 26.04 26.04 0 0 0-4.2 10.98c-.7 3.9-1 7.86-1.9 11.7-1.18 5.09-3.33 10.23-3.76 15.45-2.51 1.61-3.6 4.74-4.1 7.7s-.55 6.06-1.8 8.78c-.64 1.42-1.57 2.7-2.17 4.15a19.03 19.03 0 0 0-.93 3.55 13.92 13.92 0 0 0-.25 5.87 8.83 8.83 0 0 1-2.28 1.74c.12-.5.22-.96.31-1.46-2 1.83-5.66 1.19-7.28 3.38a3.28 3.28 0 0 0 .78 4.51 6.24 6.24 0 0 0 1.62.69c3.9 1.26 7.9 2.52 11.93 1.85a3.56 3.56 0 0 0 1.34-.43 4.34 4.34 0 0 0 1.26-1.45l1.8-2.86a37.09 37.09 0 0 0 4.37 1.03 57 57 0 0 1 .32 3.75c.78.15 1.82.19 2.19-.54a1.9 1.9 0 0 0 .13-.86c0-.55.09-1.29.13-2.04h.15a14.82 14.82 0 0 0 6.91-1.4c-.84-6.9 1.92-13.67 4.31-20.21 2.52-6.88 4.68-13.9 6.86-20.9 1.56-4.93 3.28-9.7 4.81-14.64q2.88-9.36 5.8-18.72a185.2 185.2 0 0 1 2.66-8.2 127.65 127.65 0 0 1 7.24-16.1c.76-1.47 1.56-2.94 2.19-4.46.78-1.87 1.34-3.81 1.95-5.74a88.97 88.97 0 0 1 4.9-11.54l.15-.29c.63 2.59 1.28 5.2 1.69 7.8a29.64 29.64 0 0 1 .13 9.65 31.82 31.82 0 0 0-1 6.53c.13 3.05 1.76 5.83 2.56 8.76a33.36 33.36 0 0 1 .88 6.7c.22 3.52 2.12 7.46.78 10.72-4.17 10.3-2.16 21.95-4.53 32.77-1.23 5.56-4.98 10.77-4.7 16.45q.32 6.05 1.07 12.07a11.48 11.48 0 0 0 .98 3.65 13.45 13.45 0 0 0 1.06 1.75c-.34.14-.63.48-.87 1.24a4.82 4.82 0 0 0 1.74 5.46 7.58 7.58 0 0 0 2.24.78 11.88 11.88 0 0 0 3.27.45 7.61 7.61 0 0 0 1.01-.13 37.2 37.2 0 0 0 3.7 1.33 8.04 8.04 0 0 0 .11.96 1.19 1.19 0 0 0 .41.88 1.23 1.23 0 0 0 .62.1h4.24v-1.05a3.49 3.49 0 0 0 2.7-.87 4.16 4.16 0 0 0 .78-1.63l3.45-11.77a37.6 37.6 0 0 0 1.67-13.41c-1.5-14.37 1.8-28.8.72-43.23a103.55 103.55 0 0 1 1.33-25.93c.36-1.95.78-3.9.94-5.83.35-3.64-.08-7.32.18-10.94.08-1.25.25-2.51.41-3.77a181.39 181.39 0 0 0 1.67-23.53 74.06 74.06 0 0 0-.48-7.8 4.46 4.46 0 0 0 2.14-1.23 5.3 5.3 0 0 0 .5-3.34c0-2.76 1.17-5.37 2.1-7.97a94.8 94.8 0 0 0 2.94-10.98 38.32 38.32 0 0 0 1.31-9.17q0-.46-.04-.93a2.42 2.42 0 0 0 .71-.78 4.55 4.55 0 0 0 .39-1.45l.84-5.98.62-4.28 2.48-17.31.64-4.52.64-4.47.2-1.56c1.9-3.2.08-7.45-.13-11.07zm-20.7 64.82a14.26 14.26 0 0 1-1.56-6.77h-.08a3.48 3.48 0 0 0-.11-2.19c-.24-.57-.66-1.07-.92-1.64a5.95 5.95 0 0 1-.41-2.19 59.58 59.58 0 0 1 1.1-14.15l.3-1.64a4.08 4.08 0 0 0 .9-.68 6.32 6.32 0 0 0 1.01-1.58 73.78 73.78 0 0 0 2.42-5.4c.25-.6.6-1.28 1.2-1.43-.13 4.56.35 9.23-1.51 13.35a8.45 8.45 0 0 0-.78 2.1c-.18 1.17.31 2.34.14 3.5-.09.6-.35 1.15-.46 1.74a1.71 1.71 0 0 0 .46 1.66 1.37 1.37 0 0 0 .34.18l-.12.93c-.06.64-.09 1.23-.14 1.61a50.32 50.32 0 0 0-.2 5.75c0 2.07.08 4.13.03 6.24a4.24 4.24 0 0 1-.28 1.78 3.08 3.08 0 0 1-.6.78 20.24 20.24 0 0 0-.74-1.93z" data-name="Path 362" transform="translate(-185.74 -137.87)"/><ellipse cx="4.41" cy="12.47" fill="#fbbebe" data-name="Ellipse 72" rx="4.41" ry="12.47" transform="rotate(-11.59 2012.67 -2913)"/><path fill="#3f3d56" d="M672.25 620.25a4.72 4.72 0 0 0 1.72 5.4 7.7 7.7 0 0 0 2.25.79 11.8 11.8 0 0 0 3.26.45c1.34-.07 2.64-.6 4-.78a.63.63 0 0 1 .45.06.66.66 0 0 1 .18.54 20.55 20.55 0 0 0 .16 2.3 1.18 1.18 0 0 0 .41.88 1.22 1.22 0 0 0 .63.1h4.23a41.24 41.24 0 0 0-1.2-11.02 2.46 2.46 0 0 0-.32-.78 2.59 2.59 0 0 0-1.35-.78 7.54 7.54 0 0 0-3.27-.58 9.58 9.58 0 0 0-3.67 1.8 5.58 5.58 0 0 1-4.16 1c-1.4-.37-2.59-1.55-3.31.63z" data-name="Path 363"/><path fill="#fbbebe" d="M610.15 616.83a11.7 11.7 0 0 1-4.27 2.9l-.72.34a.5.5 0 0 0-.23.2.41.41 0 0 0 .06.35 5.05 5.05 0 0 0 5.74 2.08 3.04 3.04 0 0 0 1.26-.66 4.12 4.12 0 0 0 .95-2.51 5.14 5.14 0 0 0-.1-2.88c-1.1-2.44-1.48-1.34-2.69.18z" data-name="Path 364"/><path fill="#3f3d56" d="M626.37 626.45a1.9 1.9 0 0 1-.13.85c-.37.73-1.4.68-2.2.53a52.5 52.5 0 0 0-.95-7.88c-1.52-.07-2.6 1.37-3.42 2.66l-2.1 3.3a4.33 4.33 0 0 1-1.24 1.45 3.7 3.7 0 0 1-1.36.42c-4 .67-8.03-.59-11.87-1.83a6.3 6.3 0 0 1-1.62-.69 3.3 3.3 0 0 1-.78-4.51c1.61-2.2 5.24-1.56 7.25-3.38a18.17 18.17 0 0 1-1.04 3.72c2.7-.41 4.52-2.87 6.68-4.52a4.1 4.1 0 0 1 1.9-.9 4.19 4.19 0 0 1 1.56.17 18.3 18.3 0 0 1 6.87 3.38 7.4 7.4 0 0 1 2.46 2.56 18.96 18.96 0 0 1-.01 4.65z" data-name="Path 365"/><ellipse cx="16.12" cy="16.12" fill="#fbbebe" data-name="Ellipse 73" rx="16.12" ry="16.12" transform="translate(663.92 335.95)"/><path fill="#3f3d56" d="M711.8 447.59a38.23 38.23 0 0 1-1.3 9.11 94.12 94.12 0 0 1-2.94 10.94c-.93 2.6-2.1 5.2-2.1 7.95a5.3 5.3 0 0 1-.5 3.32 4.86 4.86 0 0 1-2.29 1.3 2.85 2.85 0 0 0-1.91 1.71 12.04 12.04 0 0 1-1.62-3.56q-2.1-6.43-3.9-12.94a1.68 1.68 0 0 1 .11-1.56 1.93 1.93 0 0 1 .69-.38 7.02 7.02 0 0 0 2.14-1.39 3.16 3.16 0 0 0 .73-.93 4.2 4.2 0 0 0 .3-1.76c0-2.05 0-4.12-.06-6.2a51.73 51.73 0 0 1 .22-5.72c0-.37.07-.96.14-1.62.12-1.23.36-2.64 1.01-3.12 1-.65 3.97.24 5.08.39 1.94.27 3.91.57 5.8.95a15.46 15.46 0 0 1 .41 3.5z" data-name="Path 366"/><path fill="#3f3d56" d="M646.72 370.14c-.63 1.26-2.14 1.86-3.29 2.64l-3.97 2.73a2.64 2.64 0 0 1-1.94.67 2.57 2.57 0 0 1-1.47-1.37.27.27 0 0 0 0-.07l-.82-1.37-3.9-6.54a3.72 3.72 0 0 1-.72-2.01c0-.33.1-.64.13-.98a4.72 4.72 0 0 0-.76-2.66c-.32-.59-.95-1.07-.93-1.72a6.24 6.24 0 0 1 .44-2.52 5.1 5.1 0 0 1 1.7-1.82c.37-.28.74-.52 1.14-.78a2.23 2.23 0 0 1 .69-.32c.64-.13 1.28.41 1.94.43 2.82 1.89 3.9 5.47 6.12 8.04 1.24 1.47 1.36 2.59 2.77 3.9a5.82 5.82 0 0 1 .66.65 4.53 4.53 0 0 1 .71 1c.25.68 1.8 1.47 1.48 2.1z" data-name="Path 367"/><path fill="#fbbebe" d="M674.37 368.25a14.53 14.53 0 0 1 1.74 7.85 4.91 4.91 0 0 1-.68 2.08c-1.12 1.73-3.48 2.03-5.53 2.14a3.26 3.26 0 0 0-2.4.78 2.19 2.19 0 0 0 .13 2.66 6.02 6.02 0 0 0 2.4 1.56 21.14 21.14 0 0 0 10.27 2.28c1.64-.15 3.24-.63 4.87-.88a51.07 51.07 0 0 1 5.34-.29c2.13-.08 4.24-.28 6.36-.5l5.61-.55a1.25 1.25 0 0 0 .82-.3c.42-.48-.1-1.19-.62-1.56-2.97-2.19-6.76-3.7-8.45-7.02a41.33 41.33 0 0 1-1.6-5.1 42.89 42.89 0 0 1-1.86-4.93 32.6 32.6 0 0 1-.26-4.54 6.09 6.09 0 0 0-1.56-4.14 6.5 6.5 0 0 0-4.24-1.37 13.74 13.74 0 0 0-10.35 3.35c-.7.71-1.31 1.56-2.05 2.19s-1.72.82-1.24 1.68 1.43 1.37 1.95 2.11a17.95 17.95 0 0 1 1.37 2.5z" data-name="Path 368"/><path fill="#3f3d56" d="M706.16 391.12a88.67 88.67 0 0 1-4.79 17.57 66.17 66.17 0 0 0-2.8 7.88c-.6 2.43-.49 5.03-1.03 7.45a228.4 228.4 0 0 0-1.93 9.08 59.6 59.6 0 0 0-1.1 14.13 5.91 5.91 0 0 0 .4 2.19c.28.54.69 1.04.92 1.61a3.9 3.9 0 0 1-.22 3.12 9.03 9.03 0 0 1-1.6 2.44c-7.27 2.16-15.05 1.46-22.63 1.91-6.98.41-14.04 1.86-20.93.66-.78-3.12.52-6.4 1.64-9.43 3.25-8.84 6.82-18.05 6.24-27.31a28.26 28.26 0 0 0-.36-3.22c-1.13-6.57.1-13.35 2.08-19.72a33.84 33.84 0 0 0 .89-12.32 22.47 22.47 0 0 1-.06-4.03 7.09 7.09 0 0 1 1.46-3.77c0-.05.07-.1.11-.16a1.07 1.07 0 0 1 .6 0 .5.5 0 0 0 .4 0l.07-.05a.2.2 0 0 1 .22 0c.2.1.29.47.69.54a15.55 15.55 0 0 0 1.73.17 9.37 9.37 0 0 1 2.07.28h.1a6.09 6.09 0 0 0 3.02-.24 8.05 8.05 0 0 0 1.87-.73c.16-.19 1.24-.35 1.46-.5.71-.41.55-2.43.7-3.26a9 9 0 0 1 .59-2.42 4.12 4.12 0 0 1 3.34-1.95 17.79 17.79 0 0 1 4 .37c2.92.41 5.89.34 8.76 1.02 1.43.32 3.01.83 4.31.17.36.1.41.41.41.78a5 5 0 0 1-.21 1.08c-.51 2.15 1.19 4.14 2.75 5.7a8.83 8.83 0 0 0 2.3 1.83c.78.36 1.56.5 2.35.89a4.25 4.25 0 0 1 1.56 1.44 5.97 5.97 0 0 1 .89 2.27 13.57 13.57 0 0 1-.27 4.52z" data-name="Path 369"/><path d="M706.16 391.07a88.65 88.65 0 0 1-4.79 17.58 66.24 66.24 0 0 0-2.8 7.88c-.6 2.42-.48 5.01-1.03 7.43a228.7 228.7 0 0 0-1.93 9.1q-.25.14-.5.25a11.97 11.97 0 0 1-3.07.98 18.72 18.72 0 0 1-5.7-.17l-11.15-1.5c-4.44-.6-9.16-1.32-12.48-4.33a26.63 26.63 0 0 1-4.35-5.96 28.28 28.28 0 0 0-.37-3.21c-1.13-6.57.1-13.37 2.08-19.72a33.84 33.84 0 0 0 .9-12.32 22.48 22.48 0 0 1-.06-4.03 7.09 7.09 0 0 1 1.46-3.78 5.54 5.54 0 0 1 .69-.14 3.48 3.48 0 0 1 .47-.08h.24a3.4 3.4 0 0 1 .78.1 14.09 14.09 0 0 1 1.56.6h.1a5.98 5.98 0 0 0 2.08.3c1.02 0 2.08-.16 3.12-.23a5.75 5.75 0 0 1 3.7.65 22.17 22.17 0 0 1 2.05 1.9 8.85 8.85 0 0 0 2.6 1.4 27.61 27.61 0 0 0 20.77-.44 4.06 4.06 0 0 1 2.08-.53 3.9 3.9 0 0 1 1.5.64c.47.28.93.55 1.4.78a5.96 5.96 0 0 1 .9 2.27 13.59 13.59 0 0 1-.24 4.57z" data-name="Path 370" opacity=".1"/><path fill="#007eb3" d="M712.95 385.9a41.64 41.64 0 0 1-8.9-3.9 3.98 3.98 0 0 0-1.49-.63 4.19 4.19 0 0 0-2.1.52 27.6 27.6 0 0 1-20.75.43 9.03 9.03 0 0 1-2.6-1.4 23.33 23.33 0 0 0-2.06-1.88c-2.57-1.67-6.11.27-8.99-.78a15.87 15.87 0 0 0-1.56-.6c-2.27-.58-4.58 1.7-6.81 1a37.95 37.95 0 0 0-1.84 6.98 75.9 75.9 0 0 0-.5 8.2c0 1.65-.08 3.3 0 4.94a1.61 1.61 0 0 1 1.23 2.55 63.98 63.98 0 0 1-5.76 12.18 26.47 26.47 0 0 1 4.82 3.7c2.74 2.87 4.08 6.92 7.03 9.59 3.32 3 8.06 3.73 12.48 4.32l11.14 1.5a19.02 19.02 0 0 0 5.72.2 12.04 12.04 0 0 0 3.04-1 5.47 5.47 0 0 0 1.71-1.12 6.24 6.24 0 0 0 1-1.56c.89-1.77 1.7-3.56 2.44-5.4.24-.64.64-1.4 1.34-1.45 4.14-3.73 8.04-7.55 12.18-11.29a26.96 26.96 0 0 0 4.44-4.68c2.06-3.04.2-7.33 0-11a13.9 13.9 0 0 0-.35-2.79c-.67-2.65-2.25-5.84-4.85-6.62z" data-name="Path 371"/><path d="M646.72 370.16c-.63 1.25-2.14 1.85-3.29 2.64l-3.96 2.71a2.64 2.64 0 0 1-1.96.69 2.57 2.57 0 0 1-1.45-1.37v-.58a5.24 5.24 0 0 1 .24-1.86 5.82 5.82 0 0 1 1.76-2.24 14.31 14.31 0 0 1 5.11-3.12 1.75 1.75 0 0 1 .95-.1 1.23 1.23 0 0 1 .34.13 4.52 4.52 0 0 1 .7 1.03c.32.64 1.88 1.44 1.55 2.07z" data-name="Path 372" opacity=".1"/><path fill="#007eb3" d="M656.02 378.42a5.68 5.68 0 0 1-3.38-1.93l-2.95-2.75a2.76 2.76 0 0 1-.52-.57 4.05 4.05 0 0 1-.36-.96 11.02 11.02 0 0 0-2.87-4.12 1.88 1.88 0 0 0-.85-.61 1.71 1.71 0 0 0-.95.1 14.27 14.27 0 0 0-5.13 3.12 5.83 5.83 0 0 0-1.74 2.24 5.2 5.2 0 0 0-.26 1.87 14.33 14.33 0 0 0 1.37 5.96c.14.28.28.57.44.86a27.03 27.03 0 0 0 3.67 4.76l1.84 2.08q2.7 3.1 5.64 5.97a7.44 7.44 0 0 0 2.53 1.77 2.82 2.82 0 0 0 2.9-.48 4.2 4.2 0 0 0 .82-1.48 29.19 29.19 0 0 0 2.41-9.73 36.76 36.76 0 0 0-.16-4.03c-.11-1.43-1.12-1.99-2.45-2.06z" data-name="Path 373"/><path fill="#33313f" d="M703.31 488.38a180.3 180.3 0 0 1-1.66 23.47c-.17 1.26-.33 2.52-.42 3.76-.27 3.65.17 7.3-.17 10.93-.18 1.96-.6 3.9-.93 5.82a103.36 103.36 0 0 0-1.33 25.86c1.08 14.37-2.23 28.77-.73 43.1a34.86 34.86 0 0 1-.46 8.35 35.33 35.33 0 0 1-1.2 5.04l-3.44 11.7a4.05 4.05 0 0 1-.78 1.63 3.7 3.7 0 0 1-2.92.86c-4.5-.14-8.75-2.08-12.83-3.97a4.48 4.48 0 0 1-1.28-.8c-.86-.87-.78-2.26-1.16-3.41a32.65 32.65 0 0 0-1.98-3.47 11.27 11.27 0 0 1-.84-3.54q-.78-6-1.06-12.04c-.3-5.65 3.45-10.87 4.68-16.38 2.33-10.83.36-22.44 4.52-32.7 1.31-3.26-.59-7.19-.78-10.68a33.84 33.84 0 0 0-.88-6.7c-.78-2.93-2.42-5.7-2.54-8.74a32.1 32.1 0 0 1 .98-6.51 29.29 29.29 0 0 0-.13-9.63 94.44 94.44 0 0 0-1.67-7.8l-.14.3a88.17 88.17 0 0 0-4.9 11.5c-.62 1.9-1.16 3.86-1.94 5.72-.65 1.56-1.44 2.99-2.2 4.45a127.94 127.94 0 0 0-7.22 16.04c-.97 2.7-1.82 5.47-2.66 8.17l-5.78 18.73c-1.56 4.93-3.28 9.68-4.8 14.59q-3.14 10.52-6.84 20.85c-2.34 6.52-5.13 13.28-4.3 20.15a14.82 14.82 0 0 1-6.88 1.4 40.34 40.34 0 0 1-11.7-2.84 9.1 9.1 0 0 1-4.05-2.4c-1.73-2.11-1.3-5.2-.78-7.9a19.1 19.1 0 0 1 .94-3.56c.59-1.44 1.56-2.71 2.16-4.13 1.23-2.73 1.3-5.8 1.78-8.76s1.57-6.08 4.1-7.7c.42-5.2 2.56-10.31 3.74-15.39.89-3.84 1.2-7.8 1.89-11.71a25.71 25.71 0 0 1 4.19-10.95 17.38 17.38 0 0 1 2.13-9.39 10.24 10.24 0 0 0 .93-1.98 11.44 11.44 0 0 0 .25-2.07 12.18 12.18 0 0 1 3.28-7.23c-.76-2.85.32-5.82 1.29-8.58a29.83 29.83 0 0 0 1.64-10.98 9.62 9.62 0 0 1 .14-3.12c.23-.78.65-1.45.91-2.19a12.48 12.48 0 0 0 .35-2.8 32.4 32.4 0 0 1 3.9-11.98c1.12-2.19.17-5.18.4-7.63.42-4.07.87-8.28 2.88-11.84.38-.67.78-1.32 1.12-2a8.69 8.69 0 0 0 .65-3.12 11.5 11.5 0 0 0-.32-4.93c4.18-3.47 9.87-4.44 15.3-4.68s10.92.25 16.24-.9c1.56-.35 3.12-.83 4.77-1.06 3.73-.55 7.52.3 11.22 1.14a13.37 13.37 0 0 0 1.56 6.76 72.62 72.62 0 0 1 5.77 27.88z" data-name="Path 374"/><path d="M684.94 489.8l-8.97 20.16a94.5 94.5 0 0 0-1.68-7.8l-.14.29v-.41l4.89-10.76z" data-name="Path 375" opacity=".1"/><path d="M711.8 447.51a3.37 3.37 0 0 1-1.78.67 8.65 8.65 0 0 1-2.92-.4l-7.02-1.76a3.45 3.45 0 0 1-.64-.22c.11-1.23.36-2.65 1.01-3.12.99-.67 3.97.22 5.08.37 1.95.27 3.9.59 5.79.96a15.46 15.46 0 0 1 .48 3.5z" data-name="Path 376" opacity=".1"/><path fill="#007eb3" d="M717.74 401.04c.13.64.35 1.29.48 1.94a14.82 14.82 0 0 1-.17 4.84l-.63 4.46-.64 4.49-2.46 17.27-.62 4.26-.86 5.98a4.28 4.28 0 0 1-.37 1.44 2.98 2.98 0 0 1-2.45 1.44 8.85 8.85 0 0 1-2.91-.4l-7.02-1.77a2.2 2.2 0 0 1-.87-.35 1.7 1.7 0 0 1-.45-1.64c.1-.6.36-1.14.44-1.74.18-1.15-.32-2.33-.14-3.5a8.68 8.68 0 0 1 .78-2.09c2.34-5.17.99-11.22 1.78-16.83a25.52 25.52 0 0 1 5.42-12.04 34.58 34.58 0 0 1 5.98-5.87 12.03 12.03 0 0 1 3.37-2.34c1.4-.3 1.1 1.47 1.34 2.45z" data-name="Path 377"/><path fill="#33313f" d="M664.59 333.67c-.5 1.65.3 3.45-.07 5.12-.41 1.85-2.13 3.14-2.63 4.98-.78 2.8 1.62 5.38 3.36 7.72 6.48 8.7 5.62 20.73 3.42 31.34a161.75 161.75 0 0 1-7.4 24.96 19.13 19.13 0 0 1-3.96 6.98c3.6-1.04 7.42-2.08 11.02-1.08 4.55 1.27 8.48 5.69 13.1 4.68 2.78-.62 4.73-3.08 7.23-4.45 4.68-2.52 10.32-.93 15.54-.12a6.1 6.1 0 0 0 3.4-.17 5.64 5.64 0 0 0 2.05-1.9 19.24 19.24 0 0 0 4.01-10.37 13.31 13.31 0 0 0-3.83-10.25 21.92 21.92 0 0 1-3.29-3.12 9.69 9.69 0 0 1-1.28-4.74c-.62-8.58 1.48-17.33-.69-25.64-.78-2.96-2.05-5.79-2.4-8.81-.41-3.78.6-7.8-.9-11.25a11.03 11.03 0 0 0-6.56-5.68 36.03 36.03 0 0 0-8.78-1.56c-4.27-.37-19.54-2.19-21.34 3.38z" data-name="Path 378"/><g data-name="Group 5" opacity=".1"><path d="M668.65 382.83a161.45 161.45 0 0 1-7.34 24.86 32.16 32.16 0 0 0 1.43-3.3 160.9 160.9 0 0 0 7.39-24.97c2.21-10.62 3.06-22.63-3.43-31.34-1.56-2.08-3.55-4.32-3.48-6.76a8.32 8.32 0 0 0-1.33 2.47c-.78 2.8 1.61 5.38 3.35 7.72 6.47 8.69 5.63 20.71 3.42 31.32z" data-name="Path 379"/><path d="M664.62 338.01a7.6 7.6 0 0 0 1.36-2.62 13.37 13.37 0 0 0-.1-3.48 3.75 3.75 0 0 0-1.3 1.78c-.44 1.4.08 2.87.04 4.32z" data-name="Path 380"/><path d="M711.11 408.3a5.61 5.61 0 0 1-2.05 1.88 5.97 5.97 0 0 1-3.4.18c-5.22-.78-10.93-2.4-15.54.14-2.5 1.37-4.44 3.83-7.24 4.44-4.6 1.03-8.54-3.39-13.1-4.68-3.23-.9-6.63-.16-9.9.78a13.63 13.63 0 0 1-2.58 3.73c3.6-1.03 7.42-2.06 11-1.07 4.56 1.27 8.49 5.7 13.11 4.68 2.78-.62 4.74-3.08 7.23-4.45 4.7-2.52 10.33-.93 15.54-.12a6.1 6.1 0 0 0 3.4-.16 5.64 5.64 0 0 0 2.05-1.9 20.98 20.98 0 0 0 3.23-6.18 22.69 22.69 0 0 1-1.75 2.74z" data-name="Path 381"/></g></g></svg>