<svg xmlns="http://www.w3.org/2000/svg" width="750" height="555"><defs><linearGradient id="a" x1=".5" x2=".5" y1="1" gradientUnits="objectBoundingBox"><stop offset="0" stop-color="gray" stop-opacity=".25"/><stop offset=".54" stop-color="gray" stop-opacity=".12"/><stop offset="1" stop-color="gray" stop-opacity=".1"/></linearGradient></defs><g transform="translate(0 .02)"><g data-name="Group 2" opacity=".1"><path fill="#007eb3" d="M600.53 393.2s-53.54-6.96-13.6 79.7c0 0 36.38-15.6 37.83-50.77a27.99 27.99 0 0 0-23.47-28.83z" data-name="Path 753"/><path fill="none" stroke="#535461" stroke-miterlimit="10" d="M601.32 393.06s12.12 48.32-14.36 79.84" data-name="Path 754"/><path fill="none" stroke="#535461" stroke-miterlimit="10" stroke-width="2" d="M586.24 477.36s19.28-47.5 55.27-65.13a77.7 77.7 0 0 0 35.28-34.25 130.64 130.64 0 0 0 8.84-22.2" data-name="Path 755"/><path fill="#007eb3" d="M708.25 344.55c-3.75 4.72-23.17 11.62-23.17 11.62s2.34-20.5 6.1-25.19a10.94 10.94 0 1 1 17.08 13.6z" data-name="Path 756"/><path fill="#007eb3" d="M701.59 381.91c-5.72 1.92-25.76-2.86-25.76-2.86s13.1-15.91 18.8-17.83a10.94 10.94 0 1 1 6.96 20.7z" data-name="Path 757"/><path fill="#007eb3" d="M665.45 426.08c-5.9-1.22-20.8-15.47-20.8-15.47s19.34-7.13 25.24-5.9a10.94 10.94 0 0 1-4.44 21.36z" data-name="Path 758"/><path fill="#007eb3" d="M630.6 453.34c-6.03-.21-23.12-11.73-23.12-11.73s17.85-10.3 23.88-10.09a10.94 10.94 0 0 1-.77 21.82z" data-name="Path 759"/><path fill="#007eb3" d="M657.17 365.68c.77 5.98 13.82 21.92 13.82 21.92s8.6-18.73 7.83-24.71a10.94 10.94 0 1 0-21.65 2.79z" data-name="Path 760"/><path fill="#007eb3" d="M616.8 398.1c2.52 5.48 19.75 16.79 19.75 16.79s2.6-20.45.07-25.92a10.94 10.94 0 1 0-19.82 9.14z" data-name="Path 761"/><path fill="#007eb3" d="M581.88 434.98c1.56 5.82 16.63 19.88 16.63 19.88s6.01-19.7 4.45-25.53a10.94 10.94 0 1 0-21.08 5.65z" data-name="Path 762"/><path d="M708.25 344.55c-3.75 4.72-23.17 11.62-23.17 11.62s2.34-20.5 6.1-25.19a10.94 10.94 0 1 1 17.08 13.6z" data-name="Path 763" opacity=".25"/><path d="M701.59 381.91c-5.72 1.92-25.76-2.86-25.76-2.86s13.1-15.91 18.8-17.83a10.94 10.94 0 1 1 6.96 20.7z" data-name="Path 764" opacity=".25"/><path d="M665.45 426.08c-5.9-1.22-20.8-15.47-20.8-15.47s19.34-7.13 25.24-5.9a10.94 10.94 0 0 1-4.44 21.36z" data-name="Path 765" opacity=".25"/><path d="M630.6 453.34c-6.03-.21-23.12-11.73-23.12-11.73s17.85-10.3 23.88-10.09a10.94 10.94 0 0 1-.77 21.82z" data-name="Path 766" opacity=".25"/><path d="M657.17 365.68c.77 5.98 13.82 21.92 13.82 21.92s8.6-18.73 7.83-24.71a10.94 10.94 0 1 0-21.65 2.79z" data-name="Path 767" opacity=".25"/><path d="M616.8 398.1c2.52 5.48 19.75 16.79 19.75 16.79s2.6-20.45.07-25.92a10.94 10.94 0 1 0-19.82 9.14z" data-name="Path 768" opacity=".25"/><path d="M581.88 434.98c1.56 5.82 16.63 19.88 16.63 19.88s6.01-19.7 4.45-25.53a10.94 10.94 0 1 0-21.08 5.65z" data-name="Path 769" opacity=".25"/><path fill="none" stroke="#535461" stroke-miterlimit="10" stroke-width="2" d="M611.91 498.98s19.28-47.51 55.28-65.14a77.7 77.7 0 0 0 35.26-34.25 130.64 130.64 0 0 0 8.84-22.2" data-name="Path 770"/><path fill="#007eb3" d="M733.9 366.16c-3.76 4.71-23.18 11.62-23.18 11.62s2.34-20.51 6.1-25.2a10.94 10.94 0 0 1 17.08 13.6z" data-name="Path 771"/><path fill="#007eb3" d="M727.24 403.51c-5.71 1.92-25.75-2.86-25.75-2.86s13.09-15.91 18.8-17.83a10.94 10.94 0 0 1 6.95 20.7z" data-name="Path 772"/><path fill="#007eb3" d="M691.11 447.7c-5.9-1.21-20.8-15.46-20.8-15.46s19.33-7.13 25.24-5.9a10.94 10.94 0 0 1-4.44 21.36z" data-name="Path 773"/><path fill="#007eb3" d="M656.24 474.94c-6.02-.22-23.11-11.74-23.11-11.74s17.85-10.3 23.87-10.08a10.94 10.94 0 0 1-.76 21.81z" data-name="Path 774"/><path fill="#007eb3" d="M682.82 387.3c.77 5.98 13.82 21.92 13.82 21.92s8.6-18.73 7.83-24.7a10.94 10.94 0 1 0-21.65 2.78z" data-name="Path 775"/><path fill="#007eb3" d="M642.45 419.68c2.52 5.47 19.75 16.78 19.75 16.78s2.6-20.44.07-25.91a10.94 10.94 0 0 0-19.82 9.14z" data-name="Path 776"/><path fill="#007eb3" d="M607.53 456.6c1.56 5.82 16.63 19.87 16.63 19.87s6.02-19.7 4.45-25.53a10.94 10.94 0 0 0-21.08 5.65z" data-name="Path 777"/></g><path fill="#007eb3" d="M8.1 293.94c11.87 50.72 36.99 94.57 76.7 115.82 82.51 44.17 268.6 21.4 407.48-4.78a318.03 318.03 0 0 0 180.84-103.36z" data-name="Path 778" opacity=".1"/><path fill="#007eb3" d="M736.4 55.17h-76.2a6.59 6.59 0 1 1 0-13.18h13.16a6.59 6.59 0 1 1 0-13.17h-9.4a6.59 6.59 0 1 1 0-13.17h39.77A105.25 105.25 0 0 0 672.7 7.1C564.26-6.83 525.54 2.38 511.88 11.88a151.88 151.88 0 0 1-55.75 24.43c-66.91 13.79-192.05 30.4-305.47-5.33-56.37-17.77-98.27 12.25-123.38 62.4h722.34c-.94-14.57-3.77-28.03-8.95-39.81a6.55 6.55 0 0 1-4.28 1.6z" data-name="Path 779" opacity=".1"/><path fill="#007eb3" d="M1.63 188.06a335.68 335.68 0 0 0 2.96 88.5l669.05 24.47a314.46 314.46 0 0 0 46.48-70.9zm264.62 63.13h-13.18a6.59 6.59 0 1 1 0 13.18h-76.2a6.59 6.59 0 1 1 0-13.18h13.18a6.59 6.59 0 1 1 0-13.17h-9.41a6.59 6.59 0 1 1 0-13.17h76.2a6.59 6.59 0 1 1 0 13.17h9.41a6.59 6.59 0 1 1 0 13.17z" data-name="Path 780" opacity=".1"/><path fill="#007eb3" d="M749.65 93.84L19.21 111.62c-8.88 22.84-14.74 48.66-17.47 75.42h735.12a312.02 312.02 0 0 0 10.61-48.08 227.8 227.8 0 0 0 2.18-45.12zm-599.62 58.22h-13.17a6.59 6.59 0 1 1 0 13.18h-76.2a6.59 6.59 0 1 1 0-13.18h13.17a6.59 6.59 0 1 1 0-13.17h-9.4a6.59 6.59 0 1 1 0-13.17h76.2a6.59 6.59 0 1 1 0 13.17h9.4a6.59 6.59 0 1 1 0 13.17z" data-name="Path 781" opacity=".1"/><path fill="url(#a)" d="M738.93 606.27s-30.46-167.08-88.55-194.2c-49.22-22.98-102.44-38.48-117.58-42.69a65.36 65.36 0 0 0-7.8-10.17c-20.68-21.6-33.11-21.2-35.12-20.93a105.17 105.17 0 0 1-2.05-12.99c-.07-.68-.13-1.32-.18-2l.18-.09q-.19-1.94-.33-4a102.95 102.95 0 0 0 23.1-16.82c.09.3.16.59.26.89q22.36-18.9 43.8-38.83c4.1-3.84 8.4-8 9.8-13.4a19.67 19.67 0 0 0 .51-5.7c.19-4.1-.79-8.29-.95-12.45a14.25 14.25 0 0 1 .16-1.96c.96-6.8 5.7-12.4 9.58-18.1a85.33 85.33 0 0 0 14.5-48.86 82.71 82.71 0 0 0-3.41-24.6c-3.03-10.14-9.33-20.78-19.82-23-4.07-.85-8.28-.32-12.43-.59-17.15-1.1-29.99-15.04-43.67-25.26a115.27 115.27 0 0 0-57.13-22.17c-6.46-.68-13.13-.73-19.28 1.32-13.8 4.6-22.18 18.78-35.48 24.61-9.83 4.34-21.19 3.63-31.45 6.89-15.26 4.85-28.22 20.5-28.56 36.6v2.08c-.17 8.13 2.74 16.4 2.97 24.73q0 1.12.03 2.26c-.07 8.98-1.14 18-4.42 26.43-1.76 4.55-4.03 9.81-3.66 14.36a9.6 9.6 0 0 0 2.27 7.52l3.3-2.91a99.85 99.85 0 0 0 34.35 94.91q.19 3.07.37 6.58c.52 10.13.93 22.84.81 36.7l-32.24 29.63-82.88 37.6s-75.8 16-59.48 122.5l7.8 66.12h69.2l-.16.35h102.72l.06-.35h244.38l-.05.35h9.57v-.35zM490.5 339.97a71.04 71.04 0 0 1 4.92 13.54 55.45 55.45 0 0 1-5.32-14.28l.1.19zm-117.47 13.67q0 1.96-.06 3.95l-.17.23a33.49 33.49 0 0 1 .23-4.21z" data-name="Path 782" transform="translate(-97.23 -51.65)"/><path fill="#fdc2cc" d="M420.29 318.78L406.6 449.35l-73.14 23.24s-95.02-17.77-70.41-69.04c17.5-36.47 17.02-101.65 15.28-136.24-.68-14.04-1.61-23.04-1.61-23.04s124.41-108.7 114.16-10.94c-1.98 18.93-2.1 33.73-1 45.3 4.62 48.15 30.4 40.15 30.4 40.15z" data-name="Path 783"/><path d="M420.29 318.78L406.6 449.35l-73.14 23.24s-95.02-17.77-70.41-69.04c17.5-36.47 17.02-101.65 15.28-136.24-.68-14.04-1.61-23.04-1.61-23.04s124.41-108.7 114.16-10.94c-1.98 18.93-2.1 33.73-1 45.3 4.62 48.15 30.4 40.15 30.4 40.15z" data-name="Path 784" opacity=".03"/><path d="M390.89 231.27c-1.98 18.93-2.1 33.73-1 45.3a99.17 99.17 0 0 1-111.55-11.32c-.68-14.04-1.61-23.04-1.61-23.04s124.41-108.7 114.16-10.94z" data-name="Path 785" opacity=".1"/><circle cx="99.12" cy="99.12" r="99.12" fill="#fdc2cc" data-name="Ellipse 69" transform="translate(243.23 86.34)"/><circle cx="99.12" cy="99.12" r="99.12" data-name="Ellipse 70" opacity=".03" transform="translate(243.23 86.34)"/><path fill="#007eb3" d="M632.2 554.63H118.12l-7.52-64.95c-15.72-104.59 57.43-120.31 57.43-120.31L248 332.45l31.79-29.74c-10.26 38.97 67.33 119.98 67.33 119.98a18.37 18.37 0 0 0 1.42-1.47c2.09-2.29 7.09-8 18.79-22.18 4.18-5.08 9.24-11.24 15.32-18.72 29.26-35.95 14.25-78.44 9.76-87.22l-.28-.55-.4-.75a1.11 1.11 0 0 0-.1-.18 1.09 1.09 0 0 1-.07-.14l37.6 29.4s1.44.38 4.1 1.13c14.63 4.1 66.02 19.36 113.47 41.93 56.06 26.62 85.46 190.69 85.46 190.69z" data-name="Path 786"/><path fill="#007eb3" d="M457.2 398.08c-6.15-6.15-47.85-13.67-47.85-13.67 1.37 16.4-49.22 41.7-49.22 41.7l3.76 128.52h-24.25l-4.1-115.53 11.62-16.41 1.41-1.47a225.6 225.6 0 0 0 18.8-22.18c4.18-5.08 9.23-11.24 15.31-18.71 29.26-35.96 14.25-78.45 9.77-87.23l-.28-.55-.4-.74a1.12 1.12 0 0 0-.1-.19 1.08 1.08 0 0 1-.08-.14s12.3-2.73 34.18 20.51a64.08 64.08 0 0 1 7.52 10.02c17.77 28.52 29.33 81.49 23.91 76.07z" data-name="Path 787"/><path d="M457.2 398.08c-6.15-6.15-47.85-13.67-47.85-13.67 1.37 16.4-49.22 41.7-49.22 41.7l3.76 128.52h-24.25l-4.1-115.53 11.62-16.41 1.41-1.47a225.6 225.6 0 0 0 18.8-22.18c4.18-5.08 9.23-11.24 15.31-18.71 29.26-35.96 14.25-78.45 9.77-87.23l-.28-.55-.4-.74a1.12 1.12 0 0 0-.1-.19 1.08 1.08 0 0 1-.08-.14s12.3-2.73 34.18 20.51a64.08 64.08 0 0 1 7.52 10.02c17.77 28.52 29.33 81.49 23.91 76.07z" data-name="Path 788" opacity=".1"/><path d="M178.97 450.72s32.13 65.62 33.84 104.25" data-name="Path 789" opacity=".1"/><path d="M528.98 488.32l-9.23 66.65h9.23z" data-name="Path 790" opacity=".1"/><path d="M186.15 554.97l50.93-115.88s14.35-27.34 17.77-54.68S276.73 314 276.73 314s45.8-58.11 66.99-49.9-18.46 38.96-18.46 38.96 58.1 22.56 18.46 89.55-40.34 54.69-40.34 54.69L283.9 554.97z" data-name="Path 791" opacity=".1"/><path fill="#fdc2cc" d="M184.78 554.97l50.93-115.87s14.35-27.35 17.77-54.7c2.18-17.38 10.43-41.12 16.15-56.1a86.04 86.04 0 0 1 16.21-26.67c14.81-16.57 41.7-43.3 56.51-37.55 21.2 8.2-18.46 38.97-18.46 38.97S382 325.6 342.35 392.6s-40.33 54.69-40.33 54.69l-19.48 107.66z" data-name="Path 792"/><circle cx="2.05" cy="2.05" r="2.05" fill="#fff" data-name="Ellipse 71" opacity=".15" transform="translate(370.72 127.7)"/><circle cx="2.05" cy="2.05" r="2.05" fill="#fff" data-name="Ellipse 72" opacity=".15" transform="translate(361.15 131.8)"/><path d="M271.94 60.55c9.89-3.2 20.87-2.51 30.35-6.76 12.84-5.76 20.92-19.7 34.24-24.2 5.93-2.01 12.37-1.94 18.6-1.3a110.1 110.1 0 0 1 55.14 21.8c13.2 10.03 25.59 23.73 42.14 24.8 4 .26 8.06-.27 11.98.57 10.15 2.18 16.22 12.63 19.14 22.56a84.94 84.94 0 0 1-10.7 70.14c-3.75 5.6-8.32 11.1-9.24 17.78-.9 6.54 1.89 13.33.26 19.74-1.37 5.32-5.47 9.4-9.46 13.17q-20.68 19.56-42.27 38.11c-7.48-23.76 3.5-49.35 1.79-74.2-.69-9.68-4.1-20.25-12.64-24.81-8-4.27-18.2-2.05-26.3-6.16-9.02-4.54-12.72-15.3-19.54-22.76-11.63-12.71-31.8-14.36-48.05-8.61s-29.53 17.55-42.38 29.07l-23.36 20.95c-4.56-5.14-1.1-13.03 1.37-19.45 3.68-9.63 4.48-20.02 4.24-30.24-.2-8.2-3.03-16.3-2.87-24.3.33-15.74 12.83-31.14 27.56-35.9z" data-name="Path 793" opacity=".1"/><path fill="#865a61" d="M271.94 58.5c9.89-3.2 20.87-2.51 30.35-6.76 12.84-5.76 20.92-19.7 34.24-24.2 5.93-2.01 12.37-1.94 18.6-1.3a110.1 110.1 0 0 1 55.14 21.8c13.2 10.03 25.59 23.73 42.14 24.8 4 .26 8.06-.27 11.98.57 10.15 2.18 16.22 12.63 19.14 22.56a84.94 84.94 0 0 1-10.7 70.14c-3.75 5.6-8.32 11.1-9.24 17.77-.9 6.55 1.89 13.34.26 19.75-1.37 5.32-5.47 9.4-9.46 13.17q-20.68 19.56-42.27 38.11c-7.48-23.76 3.5-49.35 1.79-74.2-.69-9.68-4.1-20.25-12.64-24.82-8-4.26-18.2-2.05-26.3-6.15-9.02-4.54-12.72-15.31-19.54-22.76-11.63-12.72-31.8-14.36-48.05-8.61s-29.53 17.55-42.38 29.07l-23.36 20.95c-4.56-5.14-1.1-13.03 1.37-19.45 3.68-9.63 4.48-20.02 4.24-30.25-.2-8.2-3.03-16.3-2.87-24.28.33-15.75 12.83-31.15 27.56-35.91z" data-name="Path 794"/></g></svg>