<svg xmlns="http://www.w3.org/2000/svg" width="960" height="794.98" data-name="Layer 1"><path fill="#f2f2f2" d="M848.81 454.44c-5.27 45.15-16.22 81.4-31.25 110.31-20 38.52-54.21 54.04-84.77 70.28a193.28 193.28 0 0 1-27.46 11.94c-55.61 19.3-117.85 14.18-166.74 4A657.3 657.3 0 0 0 434.5 637.8q-14.97-.67-29.97-.67c-15.42.02-293.07 5.3-360.67-131.57-16.69-33.76-28.13-75-32.24-125.27C-.01 238.17 63.91 144.83 146.36 83.82 302.33-31.58 516.12-26.75 669.79 91.7c102.36 78.9 198.2 198.31 179.02 362.74z"/><path fill="#007eb3" d="M300 413.3c0 112.96-67.16 152.4-150 152.4S0 526.27 0 413.3s150-256.68 150-256.68S300 300.33 300 413.3z"/><path fill="#3f3d56" d="M144.54 548.43l1.53-94.55 63.94-116.96-63.7 102.13.69-42.51 44.07-84.62-43.88 73.37 1.24-76.45 47.18-67.37-46.99 55.34.78-140.19-4.88 185.59.4-7.65-47.97-73.43 47.2 88.12-4.47 85.39-.13-2.26-55.3-77.28 55.13 85.28-.56 10.68-.1.16.05.88-11.34 216.64h15.15l1.82-111.9 55-85.07-54.86 76.66z"/><path fill="#007eb3" d="M960 420.3c0 112.96-67.16 152.4-150 152.4s-150-39.44-150-152.4 150-256.68 150-256.68S960 307.33 960 420.3z"/><path fill="#3f3d56" d="M804.54 555.43l1.53-94.55 63.94-116.96-63.7 102.13.69-42.51 44.07-84.62-43.88 73.37 1.24-76.45 47.18-67.37-46.99 55.34.78-140.19-4.88 185.59.4-7.65-47.97-73.43 47.2 88.12-4.47 85.39-.13-2.26-55.3-77.28 55.13 85.28-.56 10.68-.1.16.05.88-11.34 216.64h15.15l1.82-111.9 55-85.07-54.86 76.66z"/><path fill="#007eb3" d="M648 324.35C648 447.87 574.57 491 484 491s-164-43.12-164-166.64S484 43.72 484 43.72s164 157.12 164 280.63z"/><path fill="#3f3d56" d="M478.03 472.1l1.67-103.37 69.91-127.88-69.64 111.66.75-46.47 48.18-92.52-47.98 80.22 1.36-83.6 51.59-73.65L482.5 197l.84-153.28-5.33 202.91.44-8.37L426 157.98l51.61 96.35-4.89 93.36-.14-2.48-60.47-84.48 60.28 93.24-.61 11.67-.11.18.05.96-12.4 236.86h16.57l1.99-122.34 60.13-93.02-59.98 83.82z"/><path fill="#3f3d56" d="M832 685.98c0 26.51-173.71 109-388 109s-388-82.49-388-109 159.71-86 374-86 402 59.5 402 86z"/><path d="M832 685.98c0 26.51-173.71 109-388 109s-388-82.49-388-109 159.71-86 374-86 402 59.5 402 86z" opacity=".1"/><path fill="#3f3d56" d="M832 685.98c0 26.51-173.71 48-388 48s-388-21.49-388-48 159.71-86 374-86 402 59.5 402 86zM574.43 553.06c0 38.03 23.86 68.8 53.34 68.8"/><path fill="#007eb3" d="M627.77 621.86c0-38.45 26.62-69.57 59.52-69.57M593.76 556.5c0 36.13 15.2 65.36 34 65.36"/><path fill="#3f3d56" d="M627.77 621.86c0-49.14 30.77-88.9 68.8-88.9"/><path fill="#a8a8a8" d="M616.55 622.35s7.56-.23 9.84-1.86 11.64-3.56 12.2-.96 11.37 12.95 2.83 13.02-19.84-1.33-22.12-2.71-2.75-7.5-2.75-7.5z"/><path d="M641.57 631.65c-8.54.06-19.84-1.33-22.12-2.72-1.73-1.06-2.42-4.84-2.65-6.6l-.25.02s.48 6.1 2.75 7.49 13.58 2.78 22.12 2.71c2.47-.02 3.32-.9 3.27-2.2-.34.79-1.28 1.28-3.12 1.3z" opacity=".2"/><ellipse cx="449" cy="680.98" opacity=".1" rx="132" ry="21"/><path fill="#ffb9b9" d="M494 633.98h13v30h-13z"/><path fill="#ff6584" d="M458 228.98h50v90h-50z"/><path fill="#ffb9b9" d="M544.72 399.31l1.73 13.85L500.88 427l-5.77-25.38 49.61-2.31zM477.23 266.06s-1.16 10.38-3.46 10.38-10.39 4.04-10.39 4.04l-2.3 10.96 16.15 9.8 26.53-2.88 7.5-11.53-7.5-7.5s-6.34-13.85-4.03-16.73-22.5 3.46-22.5 3.46z"/><path d="M477.23 266.06s-1.16 10.38-3.46 10.38-10.39 4.04-10.39 4.04l-2.3 10.96 16.15 9.8 26.53-2.88 7.5-11.53-7.5-7.5s-6.34-13.85-4.03-16.73-22.5 3.46-22.5 3.46z" opacity=".1"/><path fill="#ffb9b9" d="M405.12 625.44s-5.19 34.61-11.54 36.92 24.23 6.34 24.23 6.34l2.31-12.69s.58-23.07 2.88-26.53-17.88-4.04-17.88-4.04z"/><path fill="#2f2e41" d="M463.96 424.12s83.64-15 84.22-17.89 17.3 21.93 6.92 70.38-36.34 162.67-36.34 162.67-26.53 8.08-25.96 1.73 9.23-116.52 9.23-116.52l-5.77-46.73-9.8 5.77-40.96 80.76-20.76 69.8s-26.54 4.62-22.5-5.19 17.3-85.95 17.3-85.95l36.35-107.3s-1.16-11.53 8.07-11.53z"/><circle cx="485.02" cy="249.62" r="24.23" fill="#ffb9b9"/><path fill="#f2f2f2" d="M510.1 279.9s-11.53 10.96-38.64 8.08 7.5 61.72 7.5 61.72l10.96 65.19s48.46-5.77 50.19-16.73-30-118.26-30-118.26z"/><path fill="#2f2e41" d="M498.57 341.63s-13.84-6.93-19.03-25.96-9.81-38.65-12.7-38.07c-2.43.48-25.02 9.2-32.34 15.02-1.35 1.07-2.18 2.05-2.27 2.86-.57 5.2 20.77 57.1 20.77 57.1s16.73 37.5 9.8 49.62-7.5 27.69 5.2 26.53 54.8-3.46 49.03-35.76c0 0 10.96 22.5 41.54 6.34 0 0 18.45-2.88 17.88-9.23s-29.42-61.14-29.42-61.14-4.62-24.23 4.04-33.46l-19.62-23.08s-4.61-6.92-9.23-3.46-15 9.23-16.73 9.81-2.86-2.07-2.86-2.07a50.15 50.15 0 0 0-4.63 26.87c1.73 15 .57 38.08.57 38.08zM406.85 655.44s-1.29-4.04-8.72 0c0 0 2.38-12.7-5.7-12.7s-10.96 15-10.96 15-2.3 9.8-17.88 13.85-3.46 17.88 7.5 17.88 25.38-8.65 25.38-8.65 30 .57 30.57-5.2-2.88-23.07-5.19-23.07-6.92 8.08-6.92 8.08zM504.92 645.28s-8.08-8.65-12.7 5.77-8.07 20.2-5.18 22.5 5.19 1.15 4.03 5.77 3.46 14.42 13.85 14.42 13.27-7.5 12.69-12.7-5.2-11.53-5.2-11.53l-4.6-16.15z"/><path fill="#ffb9b9" d="M550.49 239.52l-30.57 10.39s-27.7 16.15-15.58 19.61 22.5-10.38 22.5-10.38l26.53-6.93z"/><path fill="#ff6584" d="M468.53 212.15c-3.63 2.5-6.52 5.9-9.27 9.33-5.58 6.99-11.05 15.33-9.67 24.16.52 3.36 2.01 6.48 2.85 9.77 1.13 4.44 1.06 9.09.98 13.67a18.46 18.46 0 0 1-.72 5.76 38 38 0 0 1-2.84 5.26c-2.78 5.17-2.85 11.32-2.85 17.2a14.67 14.67 0 0 0 .8 5.82c.75 1.77 2.16 3.15 3.33 4.68a20.17 20.17 0 0 1 3.11 18.27 7.91 7.91 0 0 0 7.2-4.54 10.02 10.02 0 0 1-2.57 8.16c6.6-1.97 13.68-5.28 16.1-11.73a24.85 24.85 0 0 0 1.18-6.77c1.28-16.2 2.01-32.99-3.8-48.15-1.85-4.85-4.38-9.55-5-14.7s1.28-11.12 6.02-13.25a5.46 5.46 0 0 0 1.65 3.47c1.05.78 3 .3 3.02-1.02l2.29 3.19a5.6 5.6 0 0 0 2.17-1.9l1.57 1.92 3.34-2.43 2.9 3.13a6.17 6.17 0 0 0 2.54-2.77c.62.93 1.4 1.96 2.51 2.06 2.43.22 2.93-3.64 5.06-4.84a3.58 3.58 0 0 1 4.47 1.35 7.3 7.3 0 0 1 .9 4.94c-.88 7.94-7.65 15.17-5.64 22.9 1.13 4.34 4.93 7.82 5.21 12.3.23 3.58-1.87 6.97-1.84 10.55.04 4.2 2.94 7.78 5.78 10.88q7.56 8.28 15.93 15.8l-1.72-3.02a5.6 5.6 0 0 1 4.38 1.61c.5-1.73-.32-3.54-1.1-5.16-4.64-9.74-8.38-20.11-8.94-30.88-.78-14.98 4.6-30.18 1.2-44.78a38.66 38.66 0 0 0-13.03-20.83c-3.16-2.6-5.55-4.15-9.64-4.44a72.72 72.72 0 0 0-13.72.1 31.42 31.42 0 0 0-14.14 4.93z"/><path fill="#2f2e41" d="M526.84 272.98s6.34.58 9.23 0 6.92-3.46 6.92-3.46l21.92-16.15-19.04 2.88s3.47-26.53 2.31-27.1 55.96-11.55 54.8 6.34-33.45 53.07-51.91 59.99l-12.12 1.73z"/><path fill="#fff" d="M317 477.49h272v64H317z"/><path fill="#3f3d56" d="M351.5 491.99h202v34h-202z"/><path fill="#fff" d="M398.44 508.24c-.08-.87-3.93-1.26-9.23-1.04 3.07-4.31 4.85-7.76 4.16-8.3-.65-.51-3.3 1.7-6.53 5.3-.3-4.83-1.01-8.2-1.84-8.2-.9 0-1.66 4.01-1.91 9.54-4.5-3.23-8.12-5.13-8.68-4.42-.54.68 1.9 3.53 5.75 6.94-5.1.75-8.68 1.82-8.6 2.68.08.87 3.93 1.26 9.23 1.04-3.07 4.32-4.85 7.76-4.16 8.3.65.52 3.3-1.7 6.53-5.3.3 4.83 1.01 8.21 1.84 8.21.9 0 1.66-4.02 1.91-9.55 4.5 3.23 8.12 5.13 8.68 4.42.54-.68-1.9-3.53-5.75-6.94 5.1-.75 8.68-1.82 8.6-2.68zM432.44 508.24c-.08-.87-3.93-1.26-9.23-1.04 3.07-4.31 4.85-7.76 4.16-8.3-.65-.51-3.3 1.7-6.53 5.3-.3-4.83-1.01-8.2-1.84-8.2-.9 0-1.66 4.01-1.91 9.54-4.5-3.23-8.12-5.13-8.68-4.42-.54.68 1.9 3.53 5.75 6.94-5.1.75-8.68 1.82-8.6 2.68.08.87 3.93 1.26 9.23 1.04-3.07 4.32-4.85 7.76-4.16 8.3.65.52 3.3-1.7 6.53-5.3.3 4.83 1.01 8.21 1.84 8.21.9 0 1.66-4.02 1.91-9.55 4.5 3.23 8.12 5.13 8.68 4.42.54-.68-1.9-3.53-5.75-6.94 5.1-.75 8.68-1.82 8.6-2.68zM466.44 508.24c-.08-.87-3.93-1.26-9.23-1.04 3.07-4.31 4.85-7.76 4.16-8.3-.65-.51-3.3 1.7-6.53 5.3-.3-4.83-1.01-8.2-1.84-8.2-.9 0-1.66 4.01-1.91 9.54-4.5-3.23-8.12-5.13-8.68-4.42-.54.68 1.9 3.53 5.75 6.94-5.1.75-8.68 1.82-8.6 2.68.08.87 3.93 1.26 9.23 1.04-3.07 4.32-4.85 7.76-4.16 8.3.65.52 3.3-1.7 6.53-5.3.3 4.83 1.01 8.21 1.84 8.21.9 0 1.66-4.02 1.91-9.55 4.5 3.23 8.12 5.13 8.68 4.42.54-.68-1.9-3.53-5.75-6.94 5.1-.75 8.68-1.82 8.6-2.68zM500.44 508.24c-.08-.87-3.93-1.26-9.23-1.04 3.07-4.31 4.85-7.76 4.16-8.3-.65-.51-3.3 1.7-6.53 5.3-.3-4.83-1.01-8.2-1.84-8.2-.9 0-1.66 4.01-1.91 9.54-4.5-3.23-8.12-5.13-8.68-4.42-.54.68 1.9 3.53 5.75 6.94-5.1.75-8.68 1.82-8.6 2.68.08.87 3.93 1.26 9.23 1.04-3.07 4.32-4.85 7.76-4.16 8.3.65.52 3.3-1.7 6.53-5.3.3 4.83 1.01 8.21 1.84 8.21.9 0 1.66-4.02 1.91-9.55 4.5 3.23 8.12 5.13 8.68 4.42.54-.68-1.9-3.53-5.75-6.94 5.1-.75 8.68-1.82 8.6-2.68zM534.44 508.24c-.08-.87-3.93-1.26-9.23-1.04 3.07-4.31 4.85-7.76 4.16-8.3-.65-.51-3.3 1.7-6.53 5.3-.3-4.83-1.01-8.2-1.84-8.2-.9 0-1.66 4.01-1.91 9.54-4.5-3.23-8.12-5.13-8.68-4.42-.54.68 1.9 3.53 5.75 6.94-5.1.75-8.68 1.82-8.6 2.68.08.87 3.93 1.26 9.23 1.04-3.07 4.32-4.85 7.76-4.16 8.3.65.52 3.3-1.7 6.53-5.3.3 4.83 1.01 8.21 1.84 8.21.9 0 1.66-4.02 1.91-9.55 4.5 3.23 8.12 5.13 8.68 4.42.54-.68-1.9-3.53-5.75-6.94 5.1-.75 8.68-1.82 8.6-2.68z"/><path fill="#ffb9b9" d="M428.77 450.08s-2.88 38.07 10.96 39.8 1.16-43.27 1.16-43.27z"/><path fill="#2f2e41" d="M436.27 294.33l-4.04 1.15s-16.72 133.83-5.76 159.79c0 0 11.53-6.35 17.3-5.2L453 341.06z"/></svg>