<svg xmlns="http://www.w3.org/2000/svg" width="40" height="40" viewBox="0 0 40 40"><path d="M.5-9.5a20.039,20.039,0,0,1-20-20,20.039,20.039,0,0,1,20-20,20.039,20.039,0,0,1,20,20A20.039,20.039,0,0,1,.5-9.5Zm0-36.923A16.953,16.953,0,0,0-16.423-29.5,16.953,16.953,0,0,0,.5-12.577,16.953,16.953,0,0,0,17.423-29.5,16.953,16.953,0,0,0,.5-46.423Zm0,19.846a1.524,1.524,0,0,1-1.538-1.538V-41.962A1.524,1.524,0,0,1,.5-43.5a1.524,1.524,0,0,1,1.538,1.538v13.846A1.524,1.524,0,0,1,.5-26.577Zm0,10.462a4.32,4.32,0,0,1-4.308-4.308A4.32,4.32,0,0,1,.5-24.731a4.32,4.32,0,0,1,4.308,4.308A4.32,4.32,0,0,1,.5-16.115Zm0-5.538A1.234,1.234,0,0,0-.731-20.423,1.234,1.234,0,0,0,.5-19.192a1.234,1.234,0,0,0,1.231-1.231A1.234,1.234,0,0,0,.5-21.654Z" transform="translate(19.5 49.5)" fill="#fff"/></svg>