<svg xmlns="http://www.w3.org/2000/svg" width="40" height="40" viewBox="0 0 40 40"><path d="M-.029-11.861a19.411,19.411,0,0,0,19.4-19.39A19.411,19.411,0,0,0-.029-50.64,19.392,19.392,0,0,0-19.4-31.221a19.267,19.267,0,0,0,2.327,9.215L-20.625-10.64-9.25-14.216A19.583,19.583,0,0,0-.029-11.861Zm0-2.907a16.049,16.049,0,0,1-8.844-2.587l-7.331,2.3,2.269-7.3a16.37,16.37,0,0,1-2.56-8.866A16.475,16.475,0,0,1-.029-47.733,16.494,16.494,0,0,1,16.466-31.25,16.494,16.494,0,0,1-.029-14.768ZM-5.643-31.25a2.408,2.408,0,0,0-2.415-2.413,2.4,2.4,0,0,0-2.385,2.413,2.4,2.4,0,0,0,2.385,2.384A2.4,2.4,0,0,0-5.643-31.25Zm8.029,0A2.408,2.408,0,0,0-.029-33.663,2.4,2.4,0,0,0-2.414-31.25,2.4,2.4,0,0,0-.029-28.867,2.4,2.4,0,0,0,2.386-31.25Zm8.029,0A2.408,2.408,0,0,0,8-33.663,2.4,2.4,0,0,0,5.615-31.25,2.4,2.4,0,0,0,8-28.867,2.4,2.4,0,0,0,10.415-31.25Z" transform="translate(20.625 50.64)" fill="#fff"/></svg>