<svg xmlns="http://www.w3.org/2000/svg" width="40" height="40" viewBox="0 0 40 40"><path d="M.5-9.5a19.771,19.771,0,0,1-7.785-1.569,20.707,20.707,0,0,1-6.369-4.277,20.707,20.707,0,0,1-4.277-6.369A19.771,19.771,0,0,1-19.5-29.5a19.771,19.771,0,0,1,1.569-7.785,20.707,20.707,0,0,1,4.277-6.369,20.707,20.707,0,0,1,6.369-4.277A19.771,19.771,0,0,1,.5-49.5a19.771,19.771,0,0,1,7.785,1.569,20.707,20.707,0,0,1,6.369,4.277,20.707,20.707,0,0,1,4.277,6.369A19.771,19.771,0,0,1,20.5-29.5a19.771,19.771,0,0,1-1.569,7.785,20.707,20.707,0,0,1-4.277,6.369,20.707,20.707,0,0,1-6.369,4.277A19.771,19.771,0,0,1,.5-9.5Zm0-36.923A17.232,17.232,0,0,0-6.085-45.1a17.314,17.314,0,0,0-5.385,3.631A17.314,17.314,0,0,0-15.1-36.085,17.232,17.232,0,0,0-16.423-29.5,17.232,17.232,0,0,0-15.1-22.915a17.314,17.314,0,0,0,3.631,5.385A17.314,17.314,0,0,0-6.085-13.9,17.232,17.232,0,0,0,.5-12.577,17.232,17.232,0,0,0,7.085-13.9a17.314,17.314,0,0,0,5.385-3.631A17.314,17.314,0,0,0,16.1-22.915,17.232,17.232,0,0,0,17.423-29.5,17.232,17.232,0,0,0,16.1-36.085a17.314,17.314,0,0,0-3.631-5.385A17.314,17.314,0,0,0,7.085-45.1,17.232,17.232,0,0,0,.5-46.423Zm-4,10.769A2.141,2.141,0,0,1-5.654-33.5a2.141,2.141,0,0,1-2.154-2.154,2.141,2.141,0,0,1,2.154-2.154A2.141,2.141,0,0,1-3.5-35.654Zm12.308,0A2.141,2.141,0,0,1,6.654-33.5,2.141,2.141,0,0,1,4.5-35.654a2.141,2.141,0,0,1,2.154-2.154A2.141,2.141,0,0,1,8.808-35.654ZM.5-16.577a12.833,12.833,0,0,1-7.292-2.246,13.024,13.024,0,0,1-4.677-5.785,1.543,1.543,0,0,1,.831-2,1.562,1.562,0,0,1,2.031.831,9.609,9.609,0,0,0,3.569,4.4A9.6,9.6,0,0,0,.5-19.654a9.6,9.6,0,0,0,5.538-1.723,9.609,9.609,0,0,0,3.569-4.4,1.562,1.562,0,0,1,2.031-.831,1.543,1.543,0,0,1,.831,2,13.024,13.024,0,0,1-4.677,5.785A12.833,12.833,0,0,1,.5-16.577Z" transform="translate(19.5 49.5)" fill="#fff"/></svg>