<svg xmlns="http://www.w3.org/2000/svg" width="40" height="40" viewBox="0 0 40 40"><path d="M15.927-40.287a20.083,20.083,0,0,0-4.293-6.347,20.083,20.083,0,0,0-6.347-4.293A20.013,20.013,0,0,0-2.5-52.5a20.013,20.013,0,0,0-7.787,1.573,20.083,20.083,0,0,0-6.347,4.293,20.083,20.083,0,0,0-4.293,6.347A20.013,20.013,0,0,0-22.5-32.5a19.82,19.82,0,0,0,1.573,7.787,19.9,19.9,0,0,0,4.293,6.373,19.572,19.572,0,0,0,6.347,4.267A19.542,19.542,0,0,0-2.5-12.5a19.542,19.542,0,0,0,7.787-1.573,19.572,19.572,0,0,0,6.347-4.267,19.9,19.9,0,0,0,4.293-6.373A19.82,19.82,0,0,0,17.5-32.5,20.013,20.013,0,0,0,15.927-40.287Zm-14.64-9.12-1.973,6.4a10.191,10.191,0,0,0-1.813-.16,10.191,10.191,0,0,0-1.813.16l-1.973-6.4A17.914,17.914,0,0,1-2.5-49.833,17.914,17.914,0,0,1,1.287-49.407ZM-14.767-44.74a17.567,17.567,0,0,1,5.52-3.733l.427-.16,1.947,6.4a11.243,11.243,0,0,0-3.173,2.187,11.243,11.243,0,0,0-2.187,3.173l-6.4-1.947.16-.427A17.519,17.519,0,0,1-14.767-44.74Zm24.533,0a17.519,17.519,0,0,1,3.707,5.493l.16.427-6.4,1.947a11.243,11.243,0,0,0-2.187-3.173,11.243,11.243,0,0,0-3.173-2.187l1.947-6.4.427.16A17.567,17.567,0,0,1,9.767-44.74ZM-2.5-24.5a7.927,7.927,0,0,1-5.653-2.347A7.882,7.882,0,0,1-10.5-32.5a7.927,7.927,0,0,1,2.347-5.653A8.039,8.039,0,0,1-2.5-40.5a8.039,8.039,0,0,1,5.653,2.347A7.927,7.927,0,0,1,5.5-32.5a7.882,7.882,0,0,1-2.347,5.653A7.927,7.927,0,0,1-2.5-24.5Zm-17.333-8a17.649,17.649,0,0,1,.4-3.76l6.427,1.947a10.191,10.191,0,0,0-.16,1.813,10.72,10.72,0,0,0,.16,1.84l-6.427,1.947A17.714,17.714,0,0,1-19.833-32.5Zm34.667,0a17.714,17.714,0,0,1-.4,3.787L8.007-30.66a10.72,10.72,0,0,0,.16-1.84,10.191,10.191,0,0,0-.16-1.813l6.427-1.947A17.649,17.649,0,0,1,14.833-32.5Zm-29.6,12.267a17.635,17.635,0,0,1-3.707-5.52l-.16-.4,6.4-1.973a10.536,10.536,0,0,0,2.187,3.173,10.721,10.721,0,0,0,3.173,2.187L-8.82-16.34c-.16-.053-.293-.133-.427-.187A17.051,17.051,0,0,1-14.767-20.233Zm24.533,0a17.051,17.051,0,0,1-5.52,3.707c-.133.053-.267.133-.427.187L1.873-22.767a10.721,10.721,0,0,0,3.173-2.187,10.536,10.536,0,0,0,2.187-3.173l6.4,1.973-.16.4A17.635,17.635,0,0,1,9.767-20.233ZM-6.287-15.567l1.973-6.4a13.5,13.5,0,0,0,1.813.133,13.5,13.5,0,0,0,1.813-.133l1.973,6.4a17.9,17.9,0,0,1-3.787.4A17.9,17.9,0,0,1-6.287-15.567Z" transform="translate(22.5 52.5)" fill="#fff"/></svg>